#!OML:ASF F:\twosubjects\two\wednesday\Session 1\rory1.ASF
:FULLY-SPECIFIED
:DEGREES
442
root 7.80552 13.4936 12.882 -175.149 15.1578 170.574
lowerback 32.9635 -0.74086 -1.24608
upperback 7.60955 0.343861 -3.76497
thorax -8.50625 1.06702 -3.56462
lowerneck -16.3348 1.9519 2.00859
upperneck -14.4095 4.00778 -13.6631
head -1.31756 3.18958 -4.41599
rclavicle -5.56597e-015 3.18055e-015
rhumerus 27.9162 9.34678 -47.8978
rradius 100.198
rwrist -11.7918
rhand -22.6848 49.7104
rfingers 7.12502
rthumb 3.74746 19.7636
lclavicle -5.56597e-015 3.18055e-015
lhumerus -18.4934 8.06729 66.2173
lradius 111.144
lwrist 23.8162
lhand -28.1969 11.1282
lfingers 7.12502
lthumb -1.57611 41.1022
rfemur -70.3927 2.18883 -0.804638
rtibia 98.9642
rfoot -30.3322 -4.85
rtoes -4.8177
lfemur -64.3419 11.3395 -29.7225
ltibia 97.7628
lfoot -36.0206 5.62786
ltoes -27.585
443
root 7.84786 13.5858 12.8572 -174.665 14.8821 171.55
lowerback 31.9767 -0.527131 -0.801113
upperback 7.98713 0.75816 -3.09542
thorax -8.36738 1.19192 -3.45602
lowerneck -16.4063 1.88278 2.28974
upperneck -14.3033 3.88066 -14.033
head -1.26304 3.11724 -4.58073
rclavicle 2.70347e-014 3.18055e-015
rhumerus 26.4887 9.27837 -48.0487
rradius 100.815
rwrist -11.3784
rhand -22.9385 50.2727
rfingers 7.12502
rthumb 3.50252 20.3217
lclavicle 2.70347e-014 3.18055e-015
lhumerus -17.9722 7.92434 66.2656
lradius 110.858
lwrist 23.7528
lhand -29.0272 11.961
lfingers 7.12502
lthumb -2.37799 41.9275
rfemur -69.8627 2.40853 0.446755
rtibia 98.1875
rfoot -30.1516 -5.0783
rtoes -4.41311
lfemur -64.0415 11.4113 -28.519
ltibia 97.1172
lfoot -35.7179 5.05698
ltoes -27.8902
444
root 7.89557 13.6825 12.8291 -174.233 14.5208 172.493
lowerback 31.3237 -0.414391 -0.451749
upperback 7.86176 0.981735 -2.56535
thorax -8.20417 1.25504 -3.11476
lowerneck -15.6628 1.71849 2.36029
upperneck -14.9111 3.6047 -14.3088
head -1.56396 3.0535 -4.71737
rclavicle 1.19271e-014 1.82882e-014
rhumerus 25.0595 9.48979 -48.3263
rradius 101.34
rwrist -11.1838
rhand -22.7028 50.2678
rfingers 7.12502
rthumb 3.73013 20.3207
lclavicle 1.19271e-014 1.82882e-014
lhumerus -17.3641 7.94294 66.1463
lradius 110.518
lwrist 23.6878
lhand -28.9407 12.1064
lfingers 7.12502
lthumb -2.29442 42.0738
rfemur -69.2945 2.65937 1.70948
rtibia 97.3913
rfoot -29.8481 -5.91368
rtoes -5.42828
lfemur -63.6354 11.4633 -27.321
ltibia 96.3919
lfoot -35.404 4.48704
ltoes -27.3507
445
root 7.94856 13.7795 12.7987 -174.034 13.8636 173.306
lowerback 30.9765 -0.398677 -0.0717019
upperback 7.67349 1.09124 -2.06415
thorax -8.25979 1.26769 -2.79846
lowerneck -14.2608 1.47694 2.59892
upperneck -16.1074 3.153 -14.7249
head -2.14919 2.965 -4.9598
rclavicle 2.78299e-015 -4.37326e-015
rhumerus 23.3307 9.70007 -48.7387
rradius 101.728
rwrist -10.895
rhand -22.4788 50.0003
rfingers 7.12502
rthumb 3.94646 20.0571
lclavicle 2.78299e-015 -4.37326e-015
lhumerus -16.6679 7.81126 65.9833
lradius 110.256
lwrist 23.3416
lhand -28.2013 11.5583
lfingers 7.12502
lthumb -1.5803 41.5321
rfemur -68.3071 2.60125 2.89494
rtibia 96.5614
rfoot -29.7632 -6.5091
rtoes -5.93752
lfemur -63.001 11.2293 -26.1621
ltibia 95.6014
lfoot -35.1528 4.17785
ltoes -27.3219
446
root 8.00777 13.8776 12.7766 -173.782 12.9243 174.021
lowerback 30.6529 -0.405281 0.238988
upperback 7.45641 1.1553 -1.54004
thorax -8.36124 1.2611 -2.40273
lowerneck -15.4085 1.71118 1.92492
upperneck -14.2125 3.62514 -14.2093
head -1.40258 3.01055 -4.59465
rclavicle 9.14409e-015 -3.02153e-014
rhumerus 21.188 9.71085 -49.1856
rradius 102.253
rwrist -10.6383
rhand -22.4041 49.9077
rfingers 7.12502
rthumb 4.01851 19.9659
lclavicle 9.14409e-015 -3.02153e-014
lhumerus -15.6967 7.43698 65.8036
lradius 110.082
lwrist 22.7799
lhand -28.6627 11.1665
lfingers 7.12502
lthumb -2.02591 41.1366
rfemur -67.2428 2.29557 4.00751
rtibia 95.6608
rfoot -29.7911 -6.91657
rtoes -6.03461
lfemur -62.5181 10.7768 -25.0862
ltibia 94.7272
lfoot -34.7411 3.83039
ltoes -27.5279
447
root 8.07005 13.9838 12.754 -173.571 11.8095 174.464
lowerback 30.1947 -0.530111 0.343068
upperback 7.35437 1.02484 -1.13301
thorax -8.27198 1.18218 -1.94428
lowerneck -15.8966 1.84027 1.65334
upperneck -13.1596 3.85754 -14.1252
head -1.00527 3.02256 -4.47859
rclavicle 2.62396e-014 -1.11319e-014
rhumerus 18.9743 9.58055 -49.8213
rradius 102.984
rwrist -10.5263
rhand -22.006 49.6582
rfingers 7.12502
rthumb 4.403 19.724
lclavicle 2.62396e-014 -1.11319e-014
lhumerus -14.3785 7.24139 65.3782
lradius 109.921
lwrist 22.2339
lhand -28.8659 10.7285
lfingers 7.12502
lthumb -2.22216 40.6966
rfemur -66.1575 1.83858 4.83568
rtibia 94.7373
rfoot -29.7319 -7.40999
rtoes -6.28533
lfemur -61.9415 10.1125 -24.3094
ltibia 93.6994
lfoot -34.2918 3.42538
ltoes -27.42
